<svg width="22" height="21" viewBox="0 0 22 21" fill="none" xmlns="http://www.w3.org/2000/svg">
<path d="M2.5 8.75C2.5 8.33579 2.16421 8 1.75 8C1.33579 8 1 8.33579 1 8.75H1.75H2.5ZM20.5 8.75C20.5 8.33579 20.1642 8 19.75 8C19.3358 8 19 8.33579 19 8.75H19.75H20.5ZM18.8713 18.8713L19.4017 19.4017V19.4017L18.8713 18.8713ZM2.62868 18.8713L2.09835 19.4017H2.09835L2.62868 18.8713ZM14.2479 15.8109C14.5577 15.5359 14.5859 15.0619 14.3109 14.7521C14.0359 14.4423 13.5619 14.4141 13.2521 14.6891L13.75 15.25L14.2479 15.8109ZM8.24788 14.6891C7.9381 14.4141 7.46407 14.4423 7.18909 14.7521C6.91412 15.0619 6.94234 15.5359 7.25212 15.8109L7.75 15.25L8.24788 14.6891ZM1.66199 3.48509L0.948062 3.2553H0.948062L1.66199 3.48509ZM0.978265 5.60933L1.69219 5.83912V5.83912L0.978265 5.60933ZM19.838 3.48509L19.1241 3.71488V3.71488L19.838 3.48509ZM20.5217 5.60933L21.2357 5.37954V5.37954L20.5217 5.60933ZM8.40635 8.02316C8.11534 7.72841 7.64047 7.72538 7.34572 8.0164C7.05096 8.30742 7.04793 8.78228 7.33895 9.07703L7.87265 8.5501L8.40635 8.02316ZM14.1612 8.02261C13.8702 7.72778 13.3954 7.72464 13.1005 8.01559C12.8057 8.30654 12.8026 8.7814 13.0935 9.07623L13.6274 8.54942L14.1612 8.02261ZM1.12533 7.82004L1.73333 7.38091L1.73333 7.38091L1.12533 7.82004ZM9.62269 6.93818C9.72662 6.53722 9.48583 6.12792 9.08487 6.02399C8.6839 5.92006 8.27461 6.16085 8.17068 6.56182L8.89668 6.75L9.62269 6.93818ZM15.3767 6.93818C15.4806 6.53722 15.2399 6.12792 14.8389 6.02399C14.4379 5.92006 14.0286 6.16085 13.9247 6.56182L14.6507 6.75L15.3767 6.93818ZM20.3747 7.82004L19.7667 7.38091V7.38091L20.3747 7.82004ZM20.7235 6.95667L19.9825 6.84103V6.84103L20.7235 6.95667ZM18.6949 1.12752L19.1436 0.526488V0.526487L18.6949 1.12752ZM0.776501 6.95667L0.0354699 7.07231V7.07231L0.776501 6.95667ZM2.80507 1.12752L2.35645 0.526487L2.35645 0.526487L2.80507 1.12752ZM1.75 8.75H1V13.75H1.75H2.5V8.75H1.75ZM7.75 19.75V20.5H13.75V19.75V19H7.75V19.75ZM19.75 13.75H20.5V8.75H19.75H19V13.75H19.75ZM13.75 19.75V20.5C15.143 20.5 16.2632 20.5016 17.1418 20.3835C18.0419 20.2625 18.7997 20.0036 19.4017 19.4017L18.8713 18.8713L18.341 18.341C18.0642 18.6178 17.6757 18.7982 16.9419 18.8969C16.1865 18.9984 15.1854 19 13.75 19V19.75ZM19.75 13.75H19C19 15.1854 18.9984 16.1865 18.8969 16.9419C18.7982 17.6757 18.6178 18.0642 18.341 18.341L18.8713 18.8713L19.4017 19.4017C20.0036 18.7997 20.2625 18.0419 20.3835 17.1418C20.5016 16.2632 20.5 15.143 20.5 13.75H19.75ZM1.75 13.75H1C1 15.143 0.998407 16.2632 1.11652 17.1418C1.23754 18.0419 1.49643 18.7997 2.09835 19.4017L2.62868 18.8713L3.15901 18.341C2.88225 18.0642 2.7018 17.6757 2.60315 16.9419C2.50159 16.1865 2.5 15.1854 2.5 13.75H1.75ZM7.75 19.75V19C6.31458 19 5.31347 18.9984 4.55812 18.8969C3.82434 18.7982 3.43577 18.6178 3.15901 18.341L2.62868 18.8713L2.09835 19.4017C2.70027 20.0036 3.45814 20.2625 4.35825 20.3835C5.23678 20.5016 6.35699 20.5 7.75 20.5V19.75ZM13.75 15.25L13.2521 14.6891C12.7317 15.151 11.832 15.5 10.75 15.5V16.25V17C12.1215 17 13.4001 16.5635 14.2479 15.8109L13.75 15.25ZM10.75 16.25V15.5C9.66796 15.5 8.76825 15.151 8.24788 14.6891L7.75 15.25L7.25212 15.8109C8.09993 16.5635 9.37854 17 10.75 17V16.25ZM1.66199 3.48509L0.948062 3.2553L0.264335 5.37954L0.978265 5.60933L1.69219 5.83912L2.37592 3.71488L1.66199 3.48509ZM19.838 3.48509L19.1241 3.71488L19.8078 5.83912L20.5217 5.60933L21.2357 5.37954L20.5519 3.2553L19.838 3.48509ZM5.32622 0.75V1.5H16.1738V0.75V0H5.32622V0.75ZM10.7493 9.75V9C9.83039 9 9.00175 8.62621 8.40635 8.02316L7.87265 8.5501L7.33895 9.07703C8.20574 9.95496 9.41463 10.5 10.7493 10.5V9.75ZM16.5047 9.75V9C15.5855 9 14.7566 8.62598 14.1612 8.02261L13.6274 8.54942L13.0935 9.07623C13.9604 9.95463 15.1696 10.5 16.5047 10.5V9.75ZM4.9953 9.75V9C3.76112 9 2.42028 8.33203 1.73333 7.38091L1.12533 7.82004L0.51733 8.25917C1.50148 9.62179 3.30603 10.5 4.9953 10.5V9.75ZM8.89668 6.75L8.17068 6.56182C7.80796 7.96116 6.52553 9 4.9953 9V9.75V10.5C7.21912 10.5 9.09104 8.9893 9.62269 6.93818L8.89668 6.75ZM14.6507 6.75L13.9247 6.56182C13.562 7.96116 12.2796 9 10.7493 9V9.75V10.5C12.9731 10.5 14.8451 8.9893 15.3767 6.93818L14.6507 6.75ZM20.3747 7.82004L19.7667 7.38091C19.0797 8.33203 17.7389 9 16.5047 9V9.75V10.5C18.194 10.5 19.9985 9.62179 20.9827 8.25917L20.3747 7.82004ZM20.5217 5.60933L19.8078 5.83912C19.9949 6.42039 20.0277 6.55138 19.9825 6.84103L20.7235 6.95667L21.4645 7.07231C21.5708 6.3915 21.4185 5.94772 21.2357 5.37954L20.5217 5.60933ZM20.3747 7.82004L20.9827 8.25917C21.0674 8.14189 21.1827 7.98648 21.2743 7.78046C21.367 7.57192 21.4217 7.34674 21.4645 7.07231L20.7235 6.95667L19.9825 6.84103C19.9496 7.05184 19.9209 7.13229 19.9036 7.17111C19.8853 7.21244 19.864 7.24609 19.7667 7.38091L20.3747 7.82004ZM19.838 3.48509L20.5519 3.2553C20.3447 2.61137 20.1714 2.06957 19.9809 1.64553C19.7833 1.20546 19.5371 0.820236 19.1436 0.526488L18.6949 1.12752L18.2463 1.72854C18.3585 1.81231 18.4715 1.94586 18.6127 2.26018C18.7611 2.59054 18.9065 3.03877 19.1241 3.71488L19.838 3.48509ZM16.1738 0.75V1.5C16.8635 1.5 17.3155 1.50121 17.6605 1.542C17.9846 1.58033 18.1363 1.64642 18.2463 1.72854L18.6949 1.12752L19.1436 0.526487C18.7478 0.2311 18.3107 0.108429 17.8366 0.0523774C17.3833 -0.00121409 16.8277 0 16.1738 0V0.75ZM0.978265 5.60933L0.264335 5.37954C0.0814488 5.94774 -0.0707735 6.3915 0.0354699 7.07231L0.776501 6.95667L1.51753 6.84103C1.47233 6.55137 1.5051 6.4204 1.69219 5.83912L0.978265 5.60933ZM1.12533 7.82004L1.73333 7.38091C1.63596 7.24609 1.61474 7.21244 1.59636 7.17111C1.57911 7.13229 1.55043 7.05184 1.51753 6.84103L0.776501 6.95667L0.0354699 7.07231C0.0782952 7.34674 0.132998 7.57192 0.225709 7.78046C0.3173 7.98648 0.432629 8.14189 0.51733 8.25917L1.12533 7.82004ZM1.66199 3.48509L2.37592 3.71488C2.59354 3.03877 2.73895 2.59054 2.88735 2.26018C3.02854 1.94586 3.14148 1.81231 3.2537 1.72854L2.80507 1.12752L2.35645 0.526487C1.96291 0.820236 1.71674 1.20545 1.51906 1.64553C1.32858 2.06957 1.15532 2.61137 0.948062 3.2553L1.66199 3.48509ZM5.32622 0.75V0C4.6723 0 4.11666 -0.00121409 3.6634 0.0523774C3.18932 0.108429 2.75218 0.2311 2.35645 0.526487L2.80507 1.12752L3.2537 1.72854C3.36373 1.64642 3.51536 1.58033 3.83952 1.542C4.18449 1.50121 4.63655 1.5 5.32622 1.5V0.75Z" fill="#111927"/>
</svg>
